# AST/ASF file generated using VICON BodyLanguage
# -----------------------------------------------
:version 1.10
:name VICON
:units
  mass 1.0
  length 0.45
  angle deg
:documentation
   .ast/.asf automatically generated from VICON data using
   VICON BodyBuilder and BodyLanguage model FoxedUp or BRILLIANT.MOD
:root
   order TX TY TZ RX RY RZ
   axis XYZ
   position 0 0 0  
   orientation 0 0 0 
:bonedata
  begin
     id 1 
     name lhipjoint
     direction 0.528046 -0.759594 0.379717 
     length 2.39752 
     axis 0 0 0  XYZ
  end
  begin
     id 2 
     name lfemur
     direction 0.34202 -0.939693 0  
     length 7.31175  
     axis 0 0 20  XYZ
    dof rx ry rz
    limits (-160.0 20.0)
           (-70.0 70.0)
           (-60.0 70.0)
  end
  begin
     id 3 
     name ltibia
     direction 0.34202 -0.939693 0   
     length 7.52482   
     axis 0 0 20   XYZ
    dof rx
    limits (-10.0 170.0)
  end
  begin
     id 4 
     name lfoot
     direction 0.0675379 -0.185559 0.980309   
     length 2.00961   
     axis -90 7.62852e-016 20   XYZ
    dof rx rz
    limits (-45.0 90.0)
           (-70.0 20.0)
  end
  begin
     id 5 
     name ltoes
     direction 1.5352e-011 -4.22286e-011 1   
     length 1.01383   
     axis -90 7.62852e-016 20   XYZ
    dof rx
    limits (-90.0 20.0)
  end
  begin
     id 6 
     name rhipjoint
     direction -0.510274 -0.769251 0.384544   
     length 2.36742  
     axis 0 0 0  XYZ 
  end
  begin
     id 7 
     name rfemur
     direction -0.34202 -0.939693 0   
     length 7.45325   
     axis 0 0 -20   XYZ
    dof rx ry rz
    limits (-160.0 20.0)
           (-70.0 70.0)
           (-70.0 60.0)
  end
  begin
     id 8 
     name rtibia
     direction -0.34202 -0.939693 0   
     length 7.49587   
     axis 0 0 -20   XYZ
    dof rx
    limits (-10.0 170.0)
 end
 begin
     id 9 
     name rfoot
     direction -0.106475 -0.292536 0.950308   
     length 2.20898  
     axis -90 -7.62852e-016 -20   XYZ
    dof rx rz
    limits (-45.0 90.0)
           (-20.0 70.0)
  end
  begin
     id 10 
     name rtoes
     direction -1.53597e-011 -4.22023e-011 1   
     length 1.10065   
     axis -90 -7.62852e-016 -20   XYZ
    dof rx
    limits (-90.0 20.0)
  end
  begin
     id 11 
     name lowerback
     direction 0.0260024 0.998026 -0.0571652   
     length 2.11214   
     axis 0 0 0   XYZ
    dof rx ry rz
    limits (-20.0 45.0)
           (-30.0 30.0)
           (-30.0 30.0)
  end
  begin
     id 12 
     name upperback
     direction 0.0216202 0.999542 -0.0211766   
     length 2.11689   
     axis 0 0 0   XYZ
    dof rx ry rz
    limits (-20.0 45.0)
           (-30.0 30.0)
           (-30.0 30.0)
  end
  begin
     id 13 
     name thorax
     direction 0.00883312 0.999944 0.00589057   
     length 2.11821   
     axis 0 0 0   XYZ
    dof rx ry rz
    limits (-20.0 45.0)
           (-30.0 30.0)
           (-30.0 30.0)
  end
  begin
     id 14 
     name lowerneck
     direction -0.059386 0.994433 0.0870401   
     length 1.81176   
     axis 0 0 0   XYZ
    dof rx ry rz
    limits (-20.0 45.0)
           (-30.0 30.0)
           (-30.0 30.0)
  end
  begin
     id 15 
     name upperneck
     direction 0.0506457 0.97328 -0.223967   
     length 1.82382   
     axis 0 0 0   XYZ
    dof rx ry rz
    limits (-20.0 45.0)
           (-30.0 30.0)
           (-30.0 30.0)
  end
  begin
     id 16
     name head
     direction 0.0205902 0.996147 -0.0852487  
     length 1.84805  
     axis 0 0 0   XYZ
    dof rx ry rz
    limits (-20.0 45.0)
           (-30.0 30.0)
           (-30.0 30.0)
  end
  begin
     id 17 
     name lclavicle
     direction 0.949493 0.303881 -0.0782325  
     length 3.60584  
     axis 0 0 0   XYZ
    dof ry rz
    limits (-20.0 10.0)
           (0.0 20.0)
  end
  begin
     id 18 
     name lhumerus
     direction 1 -4.48965e-011 1.48782e-027   
     length 4.95681   
     axis 180 -30 -90   XYZ
    dof rx ry rz
    limits (-60.0 90.0)
           (-90.0 90.0)
           (-90.0 90.0)
  end
  begin
     id 19
     name lradius
     direction 1 -4.48952e-011 2.06528e-027   
     length 3.40915   
     axis 180 -30 -90   XYZ
    dof rx
    limits (-10.0 170.0)
  end
  begin
     id 20
     name lwrist
     direction 1 -4.48964e-011 1.28021e-027   
     length 1.70457   
     axis -1.61767e-015 90 90   XYZ
    dof ry
    limits (-180.0 0.0)
 end
  begin
     id 21 
     name lhand
     direction 1 -4.49094e-011 2.54887e-027   
     length 0.616403   
     axis -1.63363e-015 90 90   XYZ
    dof rx rz
    limits (-90.0 90.0)
           (-45.0 45.0)
  end
  begin
     id 22 
     name lfingers
     direction 1 -4.49002e-011 5.11407e-027   
     length 0.49696   
     axis -3.26723e-015 90 90   XYZ
    dof rx
    limits (0.0 90.0)
  end
  begin
     id 23
     name lthumb
     direction 0.707107 -6.34998e-011 0.707107   
     length 0.713539   
     axis -90 45 -2.25915e-014   XYZ
    dof rx rz
    limits (-45.0 45.0)
           (-45.0 45.0)
  end
  begin
     id 24 
     name rclavicle
     direction -0.937751 0.334612 -0.0930482   
     length 3.46287  
     axis 0 0 0   XYZ 
    dof ry rz
    limits (-10.0 20.0)
           (-20.0 0.0)
  end
  begin
     id 25 
     name rhumerus
     direction -1 -4.48962e-011 3.59972e-027  
     length 5.352   
     axis 180 30 90   XYZ
    dof rx ry rz
    limits (-90.0 60.0)
           (-90.0 90.0)
           (-90.0 90.0)
  end
  begin
     id 26 
     name rradius
     direction -1 -4.48987e-011 -3.76925e-027   
     length 3.43721   
     axis 180 30 90   XYZ
    dof rx
    limits (-10.0 170.0)
  end
  begin
     id 27 
     name rwrist
     direction -1 -4.48943e-011 1.28112e-027   
     length 1.7186   
     axis -1.61767e-015 -90 -90   XYZ
    dof ry
    limits (-180.0 0.0)
  end
  begin
     id 28
     name rhand
     direction -1 -4.49027e-011 2.55483e-027   
     length 0.72009   
     axis -1.63363e-015 -90 -90   XYZ
    dof rx rz
    limits (-90.0 90.0)
           (-45.0 45.0)
  end
  begin
     id 29
     name rfingers
     direction -1 -4.48827e-011 5.14506e-027   
     length 0.580555   
     axis -3.26723e-015 -90 -90   XYZ
    dof rx
    limits (0.0 90.0)
  end
  begin
     id 30
     name rthumb
     direction -0.707107 -6.34936e-011 0.707107   
     length 0.833564   
     axis -90 -45 2.25915e-014   XYZ
    dof rx rz
    limits (-45.0 45.0)
           (-45.0 45.0)
  end
:hierarchy
  begin
    root lhipjoint rhipjoint lowerback
    lhipjoint lfemur
    lfemur ltibia
    ltibia lfoot
    lfoot ltoes
    rhipjoint rfemur
    rfemur rtibia
    rtibia rfoot
    rfoot rtoes
    lowerback upperback
    upperback thorax
    thorax lowerneck lclavicle rclavicle
    lowerneck upperneck
    upperneck head
    lclavicle lhumerus
    lhumerus lradius
    lradius lwrist
    lwrist lhand lthumb
    lhand lfingers
    rclavicle rhumerus
    rhumerus rradius
    rradius rwrist
    rwrist rhand rthumb
    rhand rfingers
  end

#!OML:ASF H:\Terrain\Patient Classification 1\Terrain2\Thursday\justin.ASF
:FULLY-SPECIFIED
:DEGREES
147
root -12.7135 17.3625 16.4975 -1.34966 12.3517 -3.83342
lowerback 5.54004 0.533756 0.844372
upperback 2.61575 0.778706 1.98677
thorax -0.432454 0.388693 1.52084
lowerneck -13.1873 0.502291 -7.9318
upperneck 39.6391 2.82849 2.0075
head 16.2938 0.352125 2.81627
rclavicle -2.87368e-014 -1.5704e-014
rhumerus -27.6913 -1.2637 -85.849
rradius 40.3759
rwrist -12.689
rhand -21.2619 16.3933
rfingers 7.12502
rthumb 5.12146 -13.5248
lclavicle -2.87368e-014 -1.5704e-014
lhumerus -31.4429 3.98406 82.0966
lradius 47.1508
lwrist 6.38404
lhand -16.5514 22.4985
lfingers 7.12502
lthumb 9.66823 52.2566
rfemur -19.4347 -11.464 19.8856
rtibia 55.5811
rfoot -14.7013 -3.69924
rtoes 0.183275
lfemur -17.9943 5.48438 -18.2421
ltibia 36.0213
lfoot -16.4162 -11.7619
ltoes -0.237388
148
root -12.7198 17.3532 16.5668 -1.28993 12.807 -4.11186
lowerback 5.38356 0.554054 1.0242
upperback 2.57036 0.812981 2.05886
thorax -0.391221 0.407012 1.49328
lowerneck -13.0697 0.39854 -8.13399
upperneck 39.624 2.66219 2.17577
head 16.2619 0.280417 2.89686
rclavicle 9.06955e-016 -1.10325e-014
rhumerus -27.7345 -1.51821 -85.7793
rradius 40.5286
rwrist -12.3602
rhand -21.2426 16.7211
rfingers 7.12502
rthumb 5.14013 -13.1965
lclavicle 9.06955e-016 -1.10325e-014
lhumerus -31.1721 3.60614 82.1373
lradius 47.5654
lwrist 6.34711
lhand -16.5738 21.8112
lfingers 7.12502
lthumb 9.64661 51.5703
rfemur -19.9196 -10.8102 20.1132
rtibia 54.1656
rfoot -14.5702 -2.84838
rtoes -0.59039
lfemur -18.1495 5.67765 -17.918
ltibia 36.3379
lfoot -16.5286 -12.3827
ltoes 2.18393
149
root -12.7285 17.3375 16.6382 -1.34108 13.32 -4.07738
lowerback 5.4164 0.589559 0.917765
upperback 2.53868 0.856449 2.02261
thorax -0.443918 0.428237 1.51269
lowerneck -13.0138 0.298863 -8.18416
upperneck 39.7256 2.4878 2.29544
head 16.3111 0.216679 2.93362
rclavicle -1.31819e-014 -5.06901e-015
rhumerus -27.9177 -1.83895 -85.6987
rradius 40.7296
rwrist -12.1587
rhand -20.9623 16.9455
rfingers 7.12502
rthumb 5.41071 -12.9654
lclavicle -1.31819e-014 -5.06901e-015
lhumerus -31.1275 3.20092 82.1763
lradius 48.2313
lwrist 6.33121
lhand -17.2319 19.8393
lfingers 7.12502
lthumb 9.01157 49.6268
rfemur -20.1324 -10.1542 19.9263
rtibia 52.7421
rfoot -14.6655 -1.89256
rtoes -0.987461
lfemur -18.0219 5.47564 -17.8749
ltibia 36.5657
lfoot -16.1657 -12.899
ltoes 5.54712
150
root -12.7322 17.3254 16.7051 -1.36319 13.8736 -4.03798
lowerback 5.46017 0.552101 0.912221
upperback 2.51944 0.807413 1.97141
thorax -0.486453 0.404031 1.4654
lowerneck -13.1068 0.223976 -8.31642
upperneck 39.7806 2.39264 2.40322
head 16.3674 0.171436 2.99385
rclavicle -5.11995e-014 2.24627e-014
rhumerus -28.0265 -1.93513 -85.6908
rradius 40.8136
rwrist -12.1133
rhand -20.8611 16.8877
rfingers 7.12502
rthumb 5.50844 -13.0207
lclavicle -5.11995e-014 2.24627e-014
lhumerus -31.2257 2.89451 82.1973
lradius 49.0459
lwrist 6.4107
lhand -17.4416 19.2872
lfingers 7.12502
lthumb 8.80921 49.0834
rfemur -20.3326 -9.43403 19.6809
rtibia 51.2926
rfoot -15.0876 -0.857742
rtoes -0.403065
lfemur -17.9239 5.24772 -17.8663
ltibia 36.7801
lfoot -16.0002 -13.3783
ltoes 7.62689
151
root -12.7399 17.3206 16.775 -1.20467 14.3911 -3.81032
lowerback 5.37836 0.510519 0.630701
upperback 2.46829 0.736799 1.88622
thorax -0.494641 0.367221 1.54032
lowerneck -13.0077 0.169574 -8.20481
upperneck 39.5968 2.37565 2.11823
head 16.2575 0.150895 2.83711
rclavicle 2.11333e-014 2.5842e-015
rhumerus -28.0198 -1.93796 -85.7448
rradius 40.7117
rwrist -12.0418
rhand -21.0629 16.7756
rfingers 7.12502
rthumb 5.31361 -13.1378
lclavicle 2.11333e-014 2.5842e-015
lhumerus -31.2437 2.67105 82.1651
lradius 49.664
lwrist 6.49322
lhand -17.6486 19.1709
lfingers 7.12502
lthumb 8.60947 48.9753
rfemur -20.6834 -8.66765 19.2544
rtibia 49.8369
rfoot -15.4364 -0.0232369
rtoes 1.40396
lfemur -17.9945 5.10475 -18.0601
ltibia 37.0232
lfoot -16.6681 -13.6279
ltoes 5.5215
152
root -12.7494 17.3083 16.8476 -1.30985 14.849 -3.84406
lowerback 5.39723 0.473056 0.512264
upperback 2.48671 0.681777 1.91074
thorax -0.48663 0.338898 1.63517
lowerneck -12.8508 0.227649 -8.01803
upperneck 39.4908 2.50769 1.8306
head 16.1641 0.201735 2.69318
rclavicle -1.82696e-014 -2.93207e-015
rhumerus -27.9883 -1.97711 -85.7288
rradius 40.5885
rwrist -11.9069
rhand -21.1229 16.709
rfingers 7.12502
rthumb 5.25565 -13.2058
lclavicle -1.82696e-014 -2.93207e-015
lhumerus -31.1238 2.46619 82.1533
lradius 49.9847
lwrist 6.51095
lhand -18.171 19.1635
lfingers 7.12502
lthumb 8.1053 48.9881
rfemur -20.7309 -7.83097 19.0753
rtibia 48.3877
rfoot -15.7681 0.222152
rtoes 2.47449
lfemur -17.8368 4.93092 -17.945
ltibia 37.2675
lfoot -17.3708 -13.6624
ltoes 2.46938
153
root -12.7494 17.2913 16.9197 -1.56913 15.4061 -4.48346
lowerback 5.32306 0.376295 1.12146
upperback 2.53366 0.582388 2.09252
thorax -0.390273 0.293021 1.4865
lowerneck -12.8527 0.301074 -8.121
upperneck 39.5357 2.64379 1.88138
head 16.1765 0.25139 2.75828
rclavicle 1.76359e-014 -1.0635e-014
rhumerus -28.0624 -2.12209 -85.6315
rradius 40.6461
rwrist -11.7979
rhand -21.1272 16.6869
rfingers 7.12502
rthumb 5.25158 -13.228
lclavicle 1.76359e-014 -1.0635e-014
lhumerus -30.9441 2.31323 82.2107
lradius 50.1308
lwrist 6.57817
lhand -18.604 19.2388
lfingers 7.12502
lthumb 7.68737 49.0791
rfemur -20.665 -7.15925 19.4723
rtibia 46.9429
rfoot -16.1674 0.183777
rtoes 1.8806
lfemur -17.6486 4.69446 -17.2027
ltibia 37.4579
lfoot -17.3139 -14.0244
ltoes 3.18659
154
root -12.7529 17.2874 16.9926 -1.39784 16.1078 -4.22183
lowerback 5.14163 0.347411 0.909342
upperback 2.49141 0.529847 1.9969
thorax -0.332909 0.265641 1.51101
lowerneck -12.7959 0.226877 -8.12869
upperneck 39.5321 2.55587 1.83678
head 16.1693 0.211372 2.72556
rclavicle 8.32411e-016 -1.19271e-014
rhumerus -28.2143 -2.35185 -85.5204
rradius 40.7005
rwrist -11.9705
rhand -21.1011 16.7567
rfingers 7.12502
rthumb 5.27677 -13.1576
lclavicle 8.32411e-016 -1.19271e-014
lhumerus -30.8573 2.1091 82.3014
lradius 50.4525
lwrist 6.6757
lhand -18.9131 19.1143
lfingers 7.12502
lthumb 7.38907 48.9653
rfemur -20.8571 -6.49605 18.8347
rtibia 45.5504
rfoot -16.2934 0.632044
rtoes 3.14613
lfemur -17.6205 4.47278 -17.4389
ltibia 37.5757
lfoot -16.9788 -14.6606
ltoes 5.32543
155
root -12.7628 17.3017 17.0636 -1.25853 16.691 -3.78578
lowerback 5.17988 0.380987 0.436491
upperback 2.39483 0.553518 1.83512
thorax -0.456864 0.274972 1.60822
lowerneck -12.6914 0.150941 -7.97723
upperneck 39.6715 2.4145 1.80575
head 16.2291 0.170182 2.66574
rclavicle 3.10601e-015 4.47266e-015
rhumerus -28.3291 -2.33489 -85.5308
rradius 40.4229
rwrist -12.545
rhand -21.0523 16.7231
rfingers 7.12502
rthumb 5.32383 -13.1901
lclavicle 3.10601e-015 4.47266e-015
lhumerus -30.9516 1.83605 82.3154
lradius 50.8999
lwrist 6.77486
lhand -18.9023 18.5541
lfingers 7.12502
lthumb 7.39945 48.4047
rfemur -21.0246 -5.28197 17.9771
rtibia 44.2395
rfoot -16.2774 1.20963
rtoes 6.34334
lfemur -17.4405 4.27824 -17.8191
ltibia 37.6086
lfoot -16.9143 -15.0775
ltoes 5.23134
156
root -12.7684 17.3025 17.1372 -1.49731 17.1712 -4.05664
lowerback 5.32224 0.33358 0.634742
upperback 2.36115 0.503452 1.86011
thorax -0.567987 0.251481 1.52444
lowerneck -12.6523 0.201862 -7.79987
upperneck 39.8668 2.43533 1.85087
head 16.32 0.207776 2.66404
rclavicle -3.13707e-015 -4.39811e-015
rhumerus -28.4395 -2.24622 -85.6475
rradius 40.2073
rwrist -12.9397
rhand -21.0503 16.4171
rfingers 7.12502
rthumb 5.32575 -13.496
lclavicle -3.13707e-015 -4.39811e-015
lhumerus -31.0413 1.85103 82.1748
lradius 51.1173
lwrist 6.74276
lhand -18.8272 17.8863
lfingers 7.12502
lthumb 7.47199 47.7343
rfemur -20.9293 -3.93128 17.8967
rtibia 43.0138
rfoot -16.3811 1.41095
rtoes 7.39016
lfemur -17.0741 3.97678 -17.429
ltibia 37.588
lfoot -16.9974 -15.3708
ltoes 5.56912
